<mxfile host="app.diagrams.net" modified="2024-05-14T13:01:21.010Z" agent="Mozilla/5.0 (Macintosh; Intel Mac OS X 10_15_7) AppleWebKit/537.36 (KHTML, like Gecko) Chrome/124.0.0.0 Safari/537.36" etag="X_fxyjGyPm6cXfriX1fc" version="24.2.2" type="github">
  <diagram name="第 1 页" id="IsgzbSDDs24B7xFU3w3Y">
    <mxGraphModel dx="853" dy="540" grid="1" gridSize="10" guides="1" tooltips="1" connect="1" arrows="1" fold="1" page="1" pageScale="1" pageWidth="827" pageHeight="1169" math="0" shadow="0">
      <root>
        <mxCell id="0" />
        <mxCell id="1" parent="0" />
        <mxCell id="w2liXAavWQqBMpRM67iu-1" value="" style="rounded=0;whiteSpace=wrap;html=1;" vertex="1" parent="1">
          <mxGeometry x="180" y="200" width="370" height="350" as="geometry" />
        </mxCell>
        <mxCell id="w2liXAavWQqBMpRM67iu-2" value="客户端" style="rounded=0;whiteSpace=wrap;html=1;" vertex="1" parent="1">
          <mxGeometry x="200" y="220" width="90" height="30" as="geometry" />
        </mxCell>
        <mxCell id="w2liXAavWQqBMpRM67iu-3" value="服务端" style="rounded=0;whiteSpace=wrap;html=1;" vertex="1" parent="1">
          <mxGeometry x="440" y="220" width="90" height="30" as="geometry" />
        </mxCell>
        <mxCell id="w2liXAavWQqBMpRM67iu-4" value="CLOSE" style="rounded=0;whiteSpace=wrap;html=1;" vertex="1" parent="1">
          <mxGeometry x="200" y="250" width="90" height="30" as="geometry" />
        </mxCell>
        <mxCell id="w2liXAavWQqBMpRM67iu-5" value="CLOSE" style="rounded=0;whiteSpace=wrap;html=1;" vertex="1" parent="1">
          <mxGeometry x="440" y="250" width="90" height="30" as="geometry" />
        </mxCell>
        <mxCell id="w2liXAavWQqBMpRM67iu-6" value="SYN_SENT" style="rounded=0;whiteSpace=wrap;html=1;" vertex="1" parent="1">
          <mxGeometry x="200" y="280" width="90" height="170" as="geometry" />
        </mxCell>
        <mxCell id="w2liXAavWQqBMpRM67iu-7" value="ESTABLISHED" style="rounded=0;whiteSpace=wrap;html=1;" vertex="1" parent="1">
          <mxGeometry x="200" y="450" width="90" height="70" as="geometry" />
        </mxCell>
        <mxCell id="w2liXAavWQqBMpRM67iu-8" value="LISTEN" style="rounded=0;whiteSpace=wrap;html=1;" vertex="1" parent="1">
          <mxGeometry x="440" y="280" width="90" height="50" as="geometry" />
        </mxCell>
        <mxCell id="w2liXAavWQqBMpRM67iu-9" value="SYN_RCVD" style="rounded=0;whiteSpace=wrap;html=1;" vertex="1" parent="1">
          <mxGeometry x="440" y="330" width="90" height="160" as="geometry" />
        </mxCell>
        <mxCell id="w2liXAavWQqBMpRM67iu-10" value="ESTABLISHED" style="rounded=0;whiteSpace=wrap;html=1;" vertex="1" parent="1">
          <mxGeometry x="440" y="490" width="90" height="30" as="geometry" />
        </mxCell>
        <mxCell id="w2liXAavWQqBMpRM67iu-14" value="" style="endArrow=classic;html=1;rounded=0;exitX=1;exitY=0;exitDx=0;exitDy=0;entryX=0;entryY=1;entryDx=0;entryDy=0;" edge="1" parent="1" source="w2liXAavWQqBMpRM67iu-6" target="w2liXAavWQqBMpRM67iu-8">
          <mxGeometry width="50" height="50" relative="1" as="geometry">
            <mxPoint x="330" y="340" as="sourcePoint" />
            <mxPoint x="380" y="290" as="targetPoint" />
          </mxGeometry>
        </mxCell>
        <mxCell id="w2liXAavWQqBMpRM67iu-15" value="" style="endArrow=classic;html=1;rounded=0;entryX=1;entryY=0;entryDx=0;entryDy=0;exitX=0;exitY=0;exitDx=0;exitDy=0;" edge="1" parent="1" source="w2liXAavWQqBMpRM67iu-9" target="w2liXAavWQqBMpRM67iu-7">
          <mxGeometry width="50" height="50" relative="1" as="geometry">
            <mxPoint x="360" y="400" as="sourcePoint" />
            <mxPoint x="410" y="350" as="targetPoint" />
          </mxGeometry>
        </mxCell>
        <mxCell id="w2liXAavWQqBMpRM67iu-16" value="" style="endArrow=classic;html=1;rounded=0;exitX=1;exitY=0;exitDx=0;exitDy=0;entryX=0;entryY=0;entryDx=0;entryDy=0;" edge="1" parent="1" source="w2liXAavWQqBMpRM67iu-7" target="w2liXAavWQqBMpRM67iu-10">
          <mxGeometry width="50" height="50" relative="1" as="geometry">
            <mxPoint x="330" y="480" as="sourcePoint" />
            <mxPoint x="380" y="430" as="targetPoint" />
          </mxGeometry>
        </mxCell>
        <mxCell id="w2liXAavWQqBMpRM67iu-17" value="SYN" style="text;html=1;align=center;verticalAlign=middle;whiteSpace=wrap;rounded=0;" vertex="1" parent="1">
          <mxGeometry x="340" y="270" width="60" height="30" as="geometry" />
        </mxCell>
        <mxCell id="w2liXAavWQqBMpRM67iu-18" value="SYN + ACK" style="text;html=1;align=center;verticalAlign=middle;whiteSpace=wrap;rounded=0;" vertex="1" parent="1">
          <mxGeometry x="310" y="360" width="70" height="30" as="geometry" />
        </mxCell>
        <mxCell id="w2liXAavWQqBMpRM67iu-19" value="&amp;nbsp;ACK" style="text;html=1;align=center;verticalAlign=middle;whiteSpace=wrap;rounded=0;" vertex="1" parent="1">
          <mxGeometry x="335" y="440" width="70" height="30" as="geometry" />
        </mxCell>
      </root>
    </mxGraphModel>
  </diagram>
</mxfile>
